# MagicaVoxel @ Ephtracy

# group
o 

# material
mtllib player.mtl
usemtl palette

# normals
vn -1 0 0
vn 1 0 0
vn 0 0 1
vn 0 0 -1
vn 0 -1 0
vn 0 1 0

# texcoords
vt 0.0917969 0.5
vt 0.947266 0.5
vt 0.951172 0.5
vt 0.955078 0.5
vt 0.958984 0.5

# verts
v -0.5 0.2 0.3
v -0.5 0.2 -0.4
v -0.5 0.9 0.3
v -0.5 0.9 -0.4
v -0.4 0.9 0.3
v -0.4 0.9 -0.4
v -0.4 2.1 0.3
v -0.4 2.1 -0.4
v -0.2 0 0.3
v -0.2 0 0
v -0.2 0 -0.1
v -0.2 0 -0.4
v -0.2 0.1 0.3
v -0.2 0.1 0
v -0.2 0.1 -0.1
v -0.2 0.1 -0.4
v -0.2 0.6 0.5
v -0.2 0.6 0.3
v -0.2 0.6 -0.4
v -0.2 0.6 -0.6
v -0.2 0.8 0.5
v -0.2 0.8 0.4
v -0.2 0.8 -0.5
v -0.2 0.8 -0.6
v -0.2 1.3 0.4
v -0.2 1.3 0.3
v -0.2 1.3 -0.4
v -0.2 1.3 -0.5
v -0.1 0.1 0.2
v -0.1 0.1 0.1
v -0.1 0.1 -0.2
v -0.1 0.1 -0.3
v -0.1 0.2 0.2
v -0.1 0.2 0.1
v -0.1 0.2 -0.2
v -0.1 0.2 -0.3
v 0 1.7 0.4
v 0 1.7 0.3
v 0 1.7 -0.4
v 0 1.7 -0.5
v 0 2 0.4
v 0 2 0.3
v 0 2 -0.4
v 0 2 -0.5
v 0.1 0.1 0.2
v 0.1 0.1 0.1
v 0.1 0.1 -0.2
v 0.1 0.1 -0.3
v 0.1 0.2 0.2
v 0.1 0.2 0.1
v 0.1 0.2 -0.2
v 0.1 0.2 -0.3
v 0.1 0.6 0.5
v 0.1 0.6 0.3
v 0.1 0.6 -0.4
v 0.1 0.6 -0.6
v 0.1 0.8 0.5
v 0.1 0.8 0.4
v 0.1 0.8 -0.5
v 0.1 0.8 -0.6
v 0.1 1.3 0.4
v 0.1 1.3 0.3
v 0.1 1.3 -0.4
v 0.1 1.3 -0.5
v 0.3 0 0.3
v 0.3 0 0
v 0.3 0 -0.1
v 0.3 0 -0.4
v 0.3 0.1 0.3
v 0.3 0.1 0
v 0.3 0.1 -0.1
v 0.3 0.1 -0.4
v 0.3 1.7 0.4
v 0.3 1.7 0.3
v 0.3 1.7 -0.4
v 0.3 1.7 -0.5
v 0.3 2 0.4
v 0.3 2 0.3
v 0.3 2 -0.4
v 0.3 2 -0.5
v 0.4 0.2 0.3
v 0.4 0.2 -0.4
v 0.4 1.5 0.3
v 0.4 1.5 -0.4
v 0.4 1.7 0.1
v 0.4 1.7 -0.2
v 0.4 1.9 0.1
v 0.4 1.9 -0.2
v 0.4 2.1 0.3
v 0.4 2.1 -0.4
v 0.7 1.7 0.1
v 0.7 1.7 -0.2
v 0.7 1.9 0.1
v 0.7 1.9 -0.2
v -0.2 0.6 0.5
v -0.2 0.8 0.5
v 0.1 0.6 0.5
v 0.1 0.8 0.5
v -0.2 0.8 0.4
v -0.2 1.3 0.4
v 0 1.7 0.4
v 0 2 0.4
v 0.1 0.8 0.4
v 0.1 1.3 0.4
v 0.1 1.8 0.4
v 0.1 1.9 0.4
v 0.2 1.8 0.4
v 0.2 1.9 0.4
v 0.3 1.7 0.4
v 0.3 2 0.4
v -0.5 0.2 0.3
v -0.5 0.9 0.3
v -0.4 0.9 0.3
v -0.4 2.1 0.3
v -0.2 0 0.3
v -0.2 0.1 0.3
v -0.2 0.6 0.3
v -0.2 1.3 0.3
v -0.1 0.2 0.3
v -0.1 0.6 0.3
v 0 1.3 0.3
v 0 1.5 0.3
v 0 1.7 0.3
v 0 2 0.3
v 0.1 0.6 0.3
v 0.1 1.3 0.3
v 0.3 0 0.3
v 0.3 0.1 0.3
v 0.3 1.7 0.3
v 0.3 2 0.3
v 0.4 0.2 0.3
v 0.4 1.5 0.3
v 0.4 2.1 0.3
v -0.1 0.1 0.2
v -0.1 0.2 0.2
v 0.1 0.1 0.2
v 0.1 0.2 0.2
v 0.4 1.7 0.1
v 0.4 1.9 0.1
v 0.7 1.7 0.1
v 0.7 1.9 0.1
v -0.2 0 -0.1
v -0.2 0.1 -0.1
v 0.3 0 -0.1
v 0.3 0.1 -0.1
v -0.1 0.1 -0.2
v -0.1 0.2 -0.2
v 0.1 0.1 -0.2
v 0.1 0.2 -0.2
v -0.1 0.1 0.1
v -0.1 0.2 0.1
v 0.1 0.1 0.1
v 0.1 0.2 0.1
v -0.2 0 0
v -0.2 0.1 0
v 0.3 0 0
v 0.3 0.1 0
v 0.4 1.7 -0.2
v 0.4 1.9 -0.2
v 0.7 1.7 -0.2
v 0.7 1.9 -0.2
v -0.1 0.1 -0.3
v -0.1 0.2 -0.3
v 0.1 0.1 -0.3
v 0.1 0.2 -0.3
v -0.5 0.2 -0.4
v -0.5 0.9 -0.4
v -0.4 0.9 -0.4
v -0.4 2.1 -0.4
v -0.2 0 -0.4
v -0.2 0.1 -0.4
v -0.2 0.6 -0.4
v -0.2 1.3 -0.4
v -0.1 0.2 -0.4
v -0.1 0.6 -0.4
v 0 1.3 -0.4
v 0 1.5 -0.4
v 0 1.7 -0.4
v 0 2 -0.4
v 0.1 0.6 -0.4
v 0.1 1.3 -0.4
v 0.3 0 -0.4
v 0.3 0.1 -0.4
v 0.3 1.7 -0.4
v 0.3 2 -0.4
v 0.4 0.2 -0.4
v 0.4 1.5 -0.4
v 0.4 2.1 -0.4
v -0.2 0.8 -0.5
v -0.2 1.3 -0.5
v 0 1.7 -0.5
v 0 2 -0.5
v 0.1 0.8 -0.5
v 0.1 1.3 -0.5
v 0.1 1.8 -0.5
v 0.1 1.9 -0.5
v 0.2 1.8 -0.5
v 0.2 1.9 -0.5
v 0.3 1.7 -0.5
v 0.3 2 -0.5
v -0.2 0.6 -0.6
v -0.2 0.8 -0.6
v 0.1 0.6 -0.6
v 0.1 0.8 -0.6
v -0.2 0 0.3
v 0.3 0 0.3
v -0.2 0 0
v 0.3 0 0
v -0.2 0 -0.1
v 0.3 0 -0.1
v -0.2 0 -0.4
v 0.3 0 -0.4
v -0.5 0.2 0.3
v -0.1 0.2 0.3
v 0.4 0.2 0.3
v -0.1 0.2 0.2
v 0.1 0.2 0.2
v -0.1 0.2 0.1
v 0.1 0.2 0.1
v -0.1 0.2 -0.2
v 0.1 0.2 -0.2
v -0.1 0.2 -0.3
v 0.1 0.2 -0.3
v -0.5 0.2 -0.4
v -0.1 0.2 -0.4
v 0.4 0.2 -0.4
v -0.2 0.6 0.5
v 0.1 0.6 0.5
v -0.2 0.6 0.3
v -0.1 0.6 0.3
v 0.1 0.6 0.3
v -0.2 0.6 -0.4
v -0.1 0.6 -0.4
v 0.1 0.6 -0.4
v -0.2 0.6 -0.6
v 0.1 0.6 -0.6
v 0 1.7 0.4
v 0.3 1.7 0.4
v 0 1.7 0.3
v 0.3 1.7 0.3
v 0.4 1.7 0.1
v 0.7 1.7 0.1
v 0.4 1.7 -0.2
v 0.7 1.7 -0.2
v 0 1.7 -0.4
v 0.3 1.7 -0.4
v 0 1.7 -0.5
v 0.3 1.7 -0.5
v -0.2 0.1 0.3
v 0.3 0.1 0.3
v -0.1 0.1 0.2
v 0.1 0.1 0.2
v -0.1 0.1 0.1
v 0.1 0.1 0.1
v -0.2 0.1 0
v 0.3 0.1 0
v -0.2 0.1 -0.1
v 0.3 0.1 -0.1
v -0.1 0.1 -0.2
v 0.1 0.1 -0.2
v -0.1 0.1 -0.3
v 0.1 0.1 -0.3
v -0.2 0.1 -0.4
v 0.3 0.1 -0.4
v -0.2 0.8 0.5
v 0.1 0.8 0.5
v -0.2 0.8 0.4
v 0.1 0.8 0.4
v -0.2 0.8 -0.5
v 0.1 0.8 -0.5
v -0.2 0.8 -0.6
v 0.1 0.8 -0.6
v -0.5 0.9 0.3
v -0.4 0.9 0.3
v -0.5 0.9 -0.4
v -0.4 0.9 -0.4
v -0.2 1.3 0.4
v 0.1 1.3 0.4
v -0.2 1.3 0.3
v 0 1.3 0.3
v 0.1 1.3 0.3
v -0.2 1.3 -0.4
v 0 1.3 -0.4
v 0.1 1.3 -0.4
v -0.2 1.3 -0.5
v 0.1 1.3 -0.5
v 0.4 1.9 0.1
v 0.7 1.9 0.1
v 0.4 1.9 -0.2
v 0.7 1.9 -0.2
v 0 2 0.4
v 0.3 2 0.4
v 0 2 0.3
v 0.3 2 0.3
v 0 2 -0.4
v 0.3 2 -0.4
v 0 2 -0.5
v 0.3 2 -0.5
v -0.4 2.1 0.3
v 0.4 2.1 0.3
v -0.4 2.1 -0.4
v 0.4 2.1 -0.4

# faces
f 3/3/1 2/3/1 1/3/1
f 4/3/1 2/3/1 3/3/1
f 7/3/1 6/3/1 5/3/1
f 8/3/1 6/3/1 7/3/1
f 13/1/1 10/1/1 9/1/1
f 14/1/1 10/1/1 13/1/1
f 15/1/1 12/1/1 11/1/1
f 16/1/1 12/1/1 15/1/1
f 21/3/1 18/3/1 17/3/1
f 22/3/1 18/3/1 21/3/1
f 23/3/1 20/3/1 19/3/1
f 24/3/1 20/3/1 23/3/1
f 25/3/1 18/3/1 22/3/1
f 26/3/1 18/3/1 25/3/1
f 27/3/1 23/3/1 19/3/1
f 28/3/1 23/3/1 27/3/1
f 33/1/1 30/1/1 29/1/1
f 34/1/1 30/1/1 33/1/1
f 35/1/1 32/1/1 31/1/1
f 36/1/1 32/1/1 35/1/1
f 41/5/1 38/5/1 37/5/1
f 42/5/1 38/5/1 41/5/1
f 43/5/1 40/5/1 39/5/1
f 44/5/1 40/5/1 43/5/1
f 45/1/2 46/1/2 49/1/2
f 49/1/2 46/1/2 50/1/2
f 47/1/2 48/1/2 51/1/2
f 51/1/2 48/1/2 52/1/2
f 53/3/2 54/3/2 57/3/2
f 57/3/2 54/3/2 58/3/2
f 55/3/2 56/3/2 59/3/2
f 59/3/2 56/3/2 60/3/2
f 58/3/2 54/3/2 61/3/2
f 61/3/2 54/3/2 62/3/2
f 55/3/2 59/3/2 63/3/2
f 63/3/2 59/3/2 64/3/2
f 65/1/2 66/1/2 69/1/2
f 69/1/2 66/1/2 70/1/2
f 67/1/2 68/1/2 71/1/2
f 71/1/2 68/1/2 72/1/2
f 73/5/2 74/5/2 77/5/2
f 77/5/2 74/5/2 78/5/2
f 75/5/2 76/5/2 79/5/2
f 79/5/2 76/5/2 80/5/2
f 81/5/2 82/5/2 83/5/2
f 83/5/2 82/5/2 84/5/2
f 83/3/2 84/3/2 85/3/2
f 85/3/2 84/3/2 86/3/2
f 83/3/2 85/3/2 87/3/2
f 86/3/2 84/3/2 88/3/2
f 83/3/2 87/3/2 89/3/2
f 87/3/2 88/3/2 89/3/2
f 88/3/2 84/3/2 90/3/2
f 89/3/2 88/3/2 90/3/2
f 91/1/2 92/1/2 93/1/2
f 93/1/2 92/1/2 94/1/2
f 97/3/3 96/3/3 95/3/3
f 98/3/3 96/3/3 97/3/3
f 103/3/3 100/3/3 99/3/3
f 104/3/3 100/3/3 103/3/3
f 105/5/3 102/5/3 101/5/3
f 106/5/3 102/5/3 105/5/3
f 107/5/3 105/5/3 101/5/3
f 107/4/3 106/4/3 105/4/3
f 108/5/3 102/5/3 106/5/3
f 108/4/3 106/4/3 107/4/3
f 109/5/3 107/5/3 101/5/3
f 109/5/3 108/5/3 107/5/3
f 110/5/3 102/5/3 108/5/3
f 110/5/3 108/5/3 109/5/3
f 113/3/3 112/3/3 111/3/3
f 117/3/3 113/3/3 111/3/3
f 117/3/3 114/3/3 113/3/3
f 118/3/3 114/3/3 117/3/3
f 119/3/3 117/3/3 111/3/3
f 120/3/3 117/3/3 119/3/3
f 121/3/3 114/3/3 118/3/3
f 122/3/3 114/3/3 121/3/3
f 123/3/3 114/3/3 122/3/3
f 124/3/3 114/3/3 123/3/3
f 125/5/3 120/5/3 119/5/3
f 126/5/3 122/5/3 121/5/3
f 127/1/3 116/1/3 115/1/3
f 128/1/3 116/1/3 127/1/3
f 129/3/3 123/3/3 122/3/3
f 130/3/3 114/3/3 124/3/3
f 131/5/3 126/5/3 125/5/3
f 131/5/3 125/5/3 119/5/3
f 132/3/3 130/3/3 129/3/3
f 132/5/3 126/5/3 131/5/3
f 132/3/3 129/3/3 122/3/3
f 132/5/3 122/5/3 126/5/3
f 133/3/3 114/3/3 130/3/3
f 133/3/3 130/3/3 132/3/3
f 136/1/3 135/1/3 134/1/3
f 137/1/3 135/1/3 136/1/3
f 140/1/3 139/1/3 138/1/3
f 141/1/3 139/1/3 140/1/3
f 144/1/3 143/1/3 142/1/3
f 145/1/3 143/1/3 144/1/3
f 148/1/3 147/1/3 146/1/3
f 149/1/3 147/1/3 148/1/3
f 150/1/4 151/1/4 152/1/4
f 152/1/4 151/1/4 153/1/4
f 154/1/4 155/1/4 156/1/4
f 156/1/4 155/1/4 157/1/4
f 158/1/4 159/1/4 160/1/4
f 160/1/4 159/1/4 161/1/4
f 162/1/4 163/1/4 164/1/4
f 164/1/4 163/1/4 165/1/4
f 166/3/4 167/3/4 168/3/4
f 166/3/4 168/3/4 172/3/4
f 168/3/4 169/3/4 172/3/4
f 172/3/4 169/3/4 173/3/4
f 166/3/4 172/3/4 174/3/4
f 174/3/4 172/3/4 175/3/4
f 173/3/4 169/3/4 176/3/4
f 176/3/4 169/3/4 177/3/4
f 177/3/4 169/3/4 178/3/4
f 178/3/4 169/3/4 179/3/4
f 174/5/4 175/5/4 180/5/4
f 176/5/4 177/5/4 181/5/4
f 170/1/4 171/1/4 182/1/4
f 182/1/4 171/1/4 183/1/4
f 177/3/4 178/3/4 184/3/4
f 179/3/4 169/3/4 185/3/4
f 180/5/4 181/5/4 186/5/4
f 174/5/4 180/5/4 186/5/4
f 184/3/4 185/3/4 187/3/4
f 186/5/4 181/5/4 187/5/4
f 177/3/4 184/3/4 187/3/4
f 181/5/4 177/5/4 187/5/4
f 185/3/4 169/3/4 188/3/4
f 187/3/4 185/3/4 188/3/4
f 189/3/4 190/3/4 193/3/4
f 193/3/4 190/3/4 194/3/4
f 191/5/4 192/5/4 195/5/4
f 195/5/4 192/5/4 196/5/4
f 191/5/4 195/5/4 197/5/4
f 195/4/4 196/4/4 197/4/4
f 196/5/4 192/5/4 198/5/4
f 197/4/4 196/4/4 198/4/4
f 191/5/4 197/5/4 199/5/4
f 197/5/4 198/5/4 199/5/4
f 198/5/4 192/5/4 200/5/4
f 199/5/4 198/5/4 200/5/4
f 201/3/4 202/3/4 203/3/4
f 203/3/4 202/3/4 204/3/4
f 207/1/5 206/1/5 205/1/5
f 208/1/5 206/1/5 207/1/5
f 211/1/5 210/1/5 209/1/5
f 212/1/5 210/1/5 211/1/5
f 216/3/5 214/3/5 213/3/5
f 216/5/5 215/5/5 214/5/5
f 217/5/5 215/5/5 216/5/5
f 218/3/5 216/3/5 213/3/5
f 219/5/5 215/5/5 217/5/5
f 220/3/5 218/3/5 213/3/5
f 220/5/5 219/5/5 218/5/5
f 221/5/5 215/5/5 219/5/5
f 221/5/5 219/5/5 220/5/5
f 222/3/5 220/3/5 213/3/5
f 223/5/5 215/5/5 221/5/5
f 224/3/5 222/3/5 213/3/5
f 225/5/5 223/5/5 222/5/5
f 225/3/5 222/3/5 224/3/5
f 226/5/5 215/5/5 223/5/5
f 226/5/5 223/5/5 225/5/5
f 229/3/5 228/3/5 227/3/5
f 230/3/5 228/3/5 229/3/5
f 231/3/5 228/3/5 230/3/5
f 235/3/5 233/3/5 232/3/5
f 235/3/5 234/3/5 233/3/5
f 236/3/5 234/3/5 235/3/5
f 239/5/5 238/5/5 237/5/5
f 240/5/5 238/5/5 239/5/5
f 243/1/5 242/1/5 241/1/5
f 244/1/5 242/1/5 243/1/5
f 247/5/5 246/5/5 245/5/5
f 248/5/5 246/5/5 247/5/5
f 249/1/6 250/1/6 251/1/6
f 251/1/6 250/1/6 252/1/6
f 249/1/6 251/1/6 253/1/6
f 252/1/6 250/1/6 254/1/6
f 249/1/6 253/1/6 255/1/6
f 253/1/6 254/1/6 255/1/6
f 254/1/6 250/1/6 256/1/6
f 255/1/6 254/1/6 256/1/6
f 257/1/6 258/1/6 259/1/6
f 259/1/6 258/1/6 260/1/6
f 257/1/6 259/1/6 261/1/6
f 260/1/6 258/1/6 262/1/6
f 257/1/6 261/1/6 263/1/6
f 261/1/6 262/1/6 263/1/6
f 262/1/6 258/1/6 264/1/6
f 263/1/6 262/1/6 264/1/6
f 265/3/6 266/3/6 267/3/6
f 267/3/6 266/3/6 268/3/6
f 269/3/6 270/3/6 271/3/6
f 271/3/6 270/3/6 272/3/6
f 273/3/6 274/3/6 275/3/6
f 275/3/6 274/3/6 276/3/6
f 277/3/6 278/3/6 279/3/6
f 279/3/6 278/3/6 280/3/6
f 280/3/6 278/3/6 281/3/6
f 282/3/6 283/3/6 285/3/6
f 283/3/6 284/3/6 285/3/6
f 285/3/6 284/3/6 286/3/6
f 287/1/6 288/1/6 289/1/6
f 289/1/6 288/1/6 290/1/6
f 291/5/6 292/5/6 293/5/6
f 293/5/6 292/5/6 294/5/6
f 295/5/6 296/5/6 297/5/6
f 297/5/6 296/5/6 298/5/6
f 299/3/6 300/3/6 301/3/6
f 301/3/6 300/3/6 302/3/6
